<?xml version="1.0" encoding="utf-8"?>
<!-- Generator: Adobe Illustrator 23.1.0, SVG Export Plug-In . SVG Version: 6.00 Build 0)  -->
<svg version="1.1" id="Layer_1" xmlns="http://www.w3.org/2000/svg" xmlns:xlink="http://www.w3.org/1999/xlink" x="0px" y="0px"
	 viewBox="0 0 300 300" style="enable-background:new 0 0 300 300;" xml:space="preserve">
<style type="text/css">
	.st0{fill:url(#SVGID_1_);}
	.st1{fill:url(#SVGID_2_);}
	.st2{fill:url(#SVGID_3_);}
	.st3{fill:url(#SVGID_4_);}
	.st4{fill:url(#SVGID_5_);}
	.st5{fill:#040404;}
	.st6{fill:url(#SVGID_6_);}
	.st7{fill:url(#SVGID_7_);}
	.st8{fill:url(#SVGID_8_);}
</style>
<g>
	<linearGradient id="SVGID_1_" gradientUnits="userSpaceOnUse" x1="158.4202" y1="165.4913" x2="203.5615" y2="165.4913">
		<stop  offset="0" style="stop-color:#7EBED7"/>
		<stop  offset="1" style="stop-color:#143197"/>
	</linearGradient>
	<path class="st0" d="M160.1,186.7c-1.4-8-2.7-20.2-0.3-34.6c2.8-17,9.3-29.8,13.8-37.2c-0.9,11.8-0.9,30,5,51.1
		c6.5,23.5,17.5,40.4,25,50.3C189.1,206.3,174.6,196.5,160.1,186.7z"/>
	<linearGradient id="SVGID_2_" gradientUnits="userSpaceOnUse" x1="172.8369" y1="165.5684" x2="225.5744" y2="165.5684">
		<stop  offset="0" style="stop-color:#7EBED7"/>
		<stop  offset="1" style="stop-color:#143197"/>
	</linearGradient>
	<path class="st1" d="M225.6,168.3l-21.9,48.1c-7.4-9-18.9-25.4-25.6-48.9c-6.4-22.4-5.6-41.5-4.3-52.9c4.1,8.6,11.3,21.2,23.8,33.4
		C207.7,158.1,217.9,164.4,225.6,168.3z"/>
	<linearGradient id="SVGID_3_" gradientUnits="userSpaceOnUse" x1="207.2809" y1="107.4857" x2="289.1301" y2="107.4857">
		<stop  offset="0" style="stop-color:#7EBED7"/>
		<stop  offset="1" style="stop-color:#143197"/>
	</linearGradient>
	<path class="st2" d="M289.1,103.7c-1,8-3.7,21.8-12.4,36.6c-8.7,14.7-19.5,23.7-26,28.4c0.3-3.4-29.2,22.6-10.5-35.7
		c1.7-5.3-0.4-11-1.2-16.3c-0.6-3.7-1.3-7.4-2.2-11c-0.7-2.9-1.6-5.7-2.6-8.4c-3.2-9.3-7.6-17.9-13.1-25.9
		c-4.1-5.9-8.7-11.5-13.9-16.5c2.9-0.7,7.2-2,12.1-4.7c5.1-2.8,6.5-4.8,10.1-5.9c3.2-1,8.2-1.5,15.7,2.1c0,0,0.1,0,0.1,0
		c1.2,0,2.5,0,3.7,0.1c6.9,4.4,18,12.9,27.3,27.1C283.9,85.1,287.4,96.3,289.1,103.7z"/>
	<linearGradient id="SVGID_4_" gradientUnits="userSpaceOnUse" x1="173.09" y1="146.7865" x2="257.0995" y2="146.7865">
		<stop  offset="0" style="stop-color:#7EBED7"/>
		<stop  offset="1" style="stop-color:#143197"/>
	</linearGradient>
	<path class="st3" d="M188.5,244.6l31,2.2l33.7-18.5l3.1-47.7v0c0.5-5.2,0.7-10.4,0.7-15.7c0-8.4-0.6-16.6-1.8-24.7
		c-0.8-5.7-2-11.2-3.4-16.7c-1.1-4.3-2.4-8.6-3.9-12.8c-4.9-14-11.6-27.2-19.8-39.2c-6.2-9-13.3-17.4-21.1-24.9
		c-8,3.8-15.5,8.4-22.6,13.6c-0.8,2.4-1.7,4.8-2.8,7l-0.4,0.8c-0.4,0.8-0.9,1.7-1.4,2.5c-1.9,3.2-4.2,6.1-6.8,8.7
		c4.9,3.3,43,30.2,46.9,80.7C223.8,208.5,193,240.2,188.5,244.6z"/>
	<linearGradient id="SVGID_5_" gradientUnits="userSpaceOnUse" x1="15.289" y1="166.0451" x2="165.0217" y2="166.0451">
		<stop  offset="0" style="stop-color:#7EBED7"/>
		<stop  offset="1" style="stop-color:#143197"/>
	</linearGradient>
	<path class="st4" d="M165,235.5c-10,2.9-20.6,4.5-31.6,4.5c-52.2,0-96-35.8-108.3-84.1v0c-0.1-0.5-0.3-1-0.4-1.5
		c-0.2,0.2-0.3,0.4-0.5,0.7c-5.6-5.9-9.1-13.8-9.1-22.6c0-2.8,0.3-5.4,1-8c0.9-3.5,2.3-6.8,4.3-9.8h0c0.7,0,1.3,0,2-0.1
		c1.4-0.1,2.9-0.3,4.2-0.5c4.2-0.8,8.1-2.4,11.6-4.7c2.3-1.5,4.4-3.3,6.3-5.3c-0.1,0.5-0.2,0.9-0.2,1.4c1.5-2.1,3.3-4,5.3-5.6
		c5.7-4.8,13-7.7,21-7.7c0.5,0,1,0,1.5,0h0c3.5,1.6,6.6,3.8,9.3,6.5c5.3,5.2,8.8,12.3,9.5,20.1c-4.2,0.1-8.3,0.6-12.3,1.3v0
		c-0.2,0-0.3,0.1-0.5,0.1c-12.2,2.3-23.4,7.1-33.2,14c1.1,5.5,2.7,10.9,4.8,16c0.5,1.3,1.1,2.5,1.7,3.8c1.6,3.5,3.5,6.8,5.5,10
		c14.9,23.1,40.6,38.6,70,39.2C136.5,217.1,149.6,228.4,165,235.5z"/>
	<path class="st5" d="M160.3,154.5"/>
	<linearGradient id="SVGID_6_" gradientUnits="userSpaceOnUse" x1="111.5918" y1="171.6948" x2="293.9677" y2="171.6948">
		<stop  offset="0" style="stop-color:#7EBED7"/>
		<stop  offset="1" style="stop-color:#143197"/>
	</linearGradient>
	<path class="st6" d="M294,140.6c0,7.7-0.6,15.3-1.8,22.7c-1.2,7.4-2.9,14.6-5.2,21.6c-3.8,11.6-9,22.6-15.5,32.8
		c-4.9,5.9-21.1,23.5-47.3,27c-9.7,1.3-18,0.3-24.3-1.1c-10.4,0-20.4-1.8-29.6-5.1c-2.5-0.9-4.9-1.9-7.3-3
		c-15-6.9-27.8-17.9-36.8-31.6c-4.5-6.8-8.1-14.2-10.6-22.1c-2.7-8.4-4.1-17.4-4.1-26.7c0-10.6,1.9-20.8,5.3-30.3
		c0.5-1.5,1.1-2.9,1.7-4.4c0.1-0.3,0.2-0.6,0.4-0.8c1.3-3.1,2.9-6,4.5-8.9c8.6,36.2,36.3,63.5,68.4,68c42.6,6,88.6-28.3,95.6-80.9
		c2.3,7.4,4,15.1,5.1,23c0.4,2.8,0.7,5.6,0.9,8.4C293.8,133.2,294,136.9,294,140.6z"/>
	<linearGradient id="SVGID_7_" gradientUnits="userSpaceOnUse" x1="6.9773" y1="169.7812" x2="271.8454" y2="169.7812">
		<stop  offset="0" style="stop-color:#7EBED7"/>
		<stop  offset="1" style="stop-color:#143197"/>
	</linearGradient>
	<path class="st7" d="M271.8,217.2c-25.5,40-70.3,66.5-121.2,66.5c-8.4,0-16.7-0.7-24.7-2.1h0C73,272.5,30,234.3,13.8,184.1
		c-4.5-13.9-6.9-28.6-6.9-44c0-4.4,0.2-8.8,0.6-13.1c0.4-4.2,1-8.4,1.7-12.6c3.1-17.1,9.2-33.1,17.7-47.5c2.3-3.8,4.7-7.6,7.3-11.1
		c4.7,1.8,8.9,4.8,12.2,8.5c4.3,4.9,7.2,11.1,7.9,17.9c0.1,1.1,0.2,2.2,0.2,3.3c0,2.6-0.3,5.2-0.9,7.6c-0.6,2.8-2.4,9.8-8.6,15.7
		c-8.1,7.9-18,8.4-20.4,8.5c0.1-1.1,0.3-2.1,0.4-3.2c-0.9,1-1.7,2.1-2.4,3.2c-1.9,2.9-3.3,6.1-4.2,9.6c-0.6,2.5-1,5.1-1,7.8
		c0,8.5,3.4,16.3,8.8,22c0.3,0.3,0.5,0.6,0.8,0.8v0c12,47.1,54.6,81.9,105.4,81.9c10.7,0,21-1.5,30.7-4.4
		c8.8,3.6,29.2,10.5,55.1,6.7C246.4,237.6,264.7,223.4,271.8,217.2z"/>
	<linearGradient id="SVGID_8_" gradientUnits="userSpaceOnUse" x1="136.5251" y1="58.3908" x2="254.7301" y2="58.3908">
		<stop  offset="0" style="stop-color:#7EBED7"/>
		<stop  offset="1" style="stop-color:#143197"/>
	</linearGradient>
	<path class="st8" d="M138.2,63.1c5.4,0.2,17.3-0.1,29.7-7.1c7.8-4.4,12.9-9.9,15.9-13.7c3-3.3,12.2-12.4,26.5-14.2
		c16.9-2.1,34.2,6.8,44.4,22.8c-2-1-18-8.6-34.6-0.5C209,55.8,204,65.3,202.5,68.5c-6.1,12.8-19,20.9-32.9,20.6
		c-15-0.3-28.4-10.4-33.1-25"/>
</g>
</svg>
